{"title":"Transen Spezial","uid":7128891,"size":892169580,"categoryP":"porn","categoryS":"movies","magnet":"?xt=urn:btih:0746c5fdc7b9201c79a8a83b7b7968098775d134&amp;dn=Transen+Spezial&amp;tr=udp%3A%2F%2Ftracker.openbittorrent.com%3A80&amp;tr=udp%3A%2F%2Fopen.demonii.com%3A1337&amp;tr=udp%3A%2F%2Ftracker.coppersurfer.tk%3A6969&amp;tr=udp%3A%2F%2Fexodus.desync.com%3A6969","seeders":0,"leechers":1,"uploader":"tigris1968","files":5,"time":1332627317,"description":"Transen Spezial\n &lt;a href=&quot;\nhttp://bayimg.com/HANkCaAdI&quot; rel=&quot;nofollow&quot; target=&quot;_NEW&quot;&gt;\nhttp://bayimg.com/HANkCaAdI&lt;/a&gt;\n &lt;a href=&quot;\nhttp://bayimg.com/HaNKfaaDI&quot; rel=&quot;nofollow&quot; target=&quot;_NEW&quot;&gt;\nhttp://bayimg.com/HaNKfaaDI&lt;/a&gt;\n\n                                    info\n\nGeneral\nComplete name                    : C:DownloadsTransen Spezialdvdjd-trspez.avi\nFormat                           : AVI\nFormat/Info                      : Audio Video Interleave\nFile size                        : 850 MiB\nDuration                         : 1h 28mn\nOverall bit rate                 : 1 339 Kbps\nWriting application              : MEncoder SVN-r30881(20100311-gcc4.3.3)\nWriting library                  : MPlayer\n\nVideo\nID                               : 0\nFormat                           : MPEG-4 Visual\nFormat profile                   : Advanced Simple@L5\nFormat settings, BVOP            : 2\nFormat settings, QPel            : No\nFormat settings, GMC             : No warppoints\nFormat settings, Matrix          : Default (H.263)\nCodec ID                         : XVID\nCodec ID/Hint                    : XviD\nDuration                         : 1h 28mn\nBit rate                         : 1 199 Kbps\nWidth                            : 720 pixels\nHeight                           : 480 pixels\nDisplay aspect ratio             : 3:2\nFrame rate                       : 25.000 fps\nStandard                         : NTSC\nColor space                      : YUV\nChroma subsampling               : 4:2:0\nBit depth                        : 8 bits\nScan type                        : Progressive\nCompression mode                 : Lossy\nBits/(Pixel*Frame)               : 0.139\nStream size                      : 761 MiB (90%)\nWriting library                  : XviD 1.2.1 (UTC 2008-12-04)\n\nAudio\nID                               : 1\nFormat                           : MPEG Audio\nFormat version                   : Version 1\nFormat profile                   : Layer 3\nMode                             : Joint stereo\nMode extension                   : MS Stereo\nCodec ID                         : 55\nCodec ID/Hint                    : MP3\nDuration                         : 1h 28mn\nBit rate mode                    : Constant\nBit rate                         : 128 Kbps\nChannel(s)                       : 2 channels\nSampling rate                    : 44.1 KHz\nCompression mode                 : Lossy\nDelay relative to video          : 40ms\nStream size                      : 81.3 MiB (10%)\nAlignment                        : Aligned on interleaves\nInterleave, duration             : 26 ms (0.65 video frame)\nInterleave, preload duration     : 522 ms\nWriting library                  : LAME3.98\n\n","torrent":{"xt":"urn:btih:0746c5fdc7b9201c79a8a83b7b7968098775d134","amp;dn":"Transen+Spezial","amp;tr":["udp%3A%2F%2Ftracker.openbittorrent.com%3A80","udp%3A%2F%2Fopen.demonii.com%3A1337","udp%3A%2F%2Ftracker.coppersurfer.tk%3A6969","udp%3A%2F%2Fexodus.desync.com%3A6969"],"infoHash":"0746c5fdc7b9201c79a8a83b7b7968098775d134","infoHashBuffer":{"type":"Buffer","data":[7,70,197,253,199,185,32,28,121,168,168,59,123,121,104,9,135,117,209,52]},"announce":[],"urlList":[]}}